<?xml version="1.0" encoding="UTF-8" standalone="no"?>
<!DOCTYPE svg PUBLIC "-//W3C//DTD SVG 1.1//EN" "http://www.w3.org/Graphics/SVG/1.1/DTD/svg11.dtd">
<svg width="100%" height="100%" viewBox="0 0 64 64" version="1.1" xmlns="http://www.w3.org/2000/svg" xmlns:xlink="http://www.w3.org/1999/xlink" xml:space="preserve" xmlns:serif="http://www.serif.com/" style="fill-rule:evenodd;clip-rule:evenodd;stroke-linejoin:round;stroke-miterlimit:2;">
    <path d="M64,16L64,48C64,56.831 56.831,64 48,64L16,64C7.169,64 0,56.831 0,48L0,16C0,7.169 7.169,0 16,0L48,0C56.831,0 64,7.169 64,16Z"/>
    <path d="M35,8L35,9L38,9L38,10L40,10L40,12L43,12L43,14L45,14L45,18L43,18L43,22L42,22L42,25L39,25L39,27L36,27L36,29L35,29L35,32L34,32L34,37L35,37L35,34L37,34L37,31L39,31L39,29L41,29L41,27L43,27L43,31L41,31L41,34L39,34L39,37L37,37L37,40L36,40L36,44L35,44L35,49L34,49L34,53L33,53L33,56L31,56L31,53L30,53L30,49L29,49L29,44L28,44L28,40L27,40L27,37L25,37L25,34L23,34L23,31L21,31L21,27L23,27L23,29L25,29L25,31L27,31L27,34L29,34L29,37L30,37L30,32L29,32L29,29L28,29L28,27L25,27L25,25L22,25L22,22L21,22L21,18L19,18L19,14L21,14L21,12L24,12L24,10L26,10L26,9L29,9L29,8L35,8ZM25,20L25,21L26,21L26,22L27,22L27,24L29,24L29,23L28,23L28,21L27,21L27,20L26,20L26,19L24,19L24,18L23,18L23,20L25,20ZM39,20L41,20L41,18L40,18L40,19L38,19L38,20L37,20L37,21L36,21L36,23L35,23L35,24L37,24L37,22L38,22L38,21L39,21L39,20Z" style="fill:white;"/>
    <path d="M45,44L43,44L43,40L44,40L44,37L45,37L45,34L47,34L47,35L49,35L49,38L47,38L47,40L46,40L46,42L45,42L45,44ZM45,26L44,26L44,24L45,24L45,22L46,22L46,20L48,20L48,22L49,22L49,24L50,24L50,26L48,26L48,28L45,28L45,26ZM49,32L46,32L46,30L49,30L49,28L51,28L51,33L49,33L49,32ZM19,44L19,42L18,42L18,40L17,40L17,38L15,38L15,35L17,35L17,34L19,34L19,37L20,37L20,40L21,40L21,44L19,44ZM19,26L19,28L16,28L16,26L14,26L14,24L15,24L15,22L16,22L16,20L18,20L18,22L19,22L19,24L20,24L20,26L19,26ZM15,32L15,33L13,33L13,28L15,28L15,30L18,30L18,32L15,32Z" style="fill:white;"/>
</svg>
